<svg width="100" height="26" viewBox="0 0 100 26" fill="none" xmlns="http://www.w3.org/2000/svg">
    <g id="&#236;&#151;&#172;&#237;&#150;&#137;&#234;&#176;&#136;&#234;&#185;&#140;">
        <path id="Vector" d="M93.6198 24.7999C93.2246 24.7999 93.027 24.6117 93.027 24.2353V2.35771C93.027 1.9625 93.2246 1.76489 93.6198 1.76489H97.4872C97.8824 1.76489 98.08 1.9625 98.08 2.35771V10.149H99.435C99.8114 10.149 99.9996 10.3466 99.9996 10.7418V14.4962C99.9996 14.8726 99.8114 15.0608 99.435 15.0608H98.08V24.2353C98.08 24.6117 97.8824 24.7999 97.4872 24.7999H93.6198ZM76.8517 22.8238C76.6635 22.8615 76.5224 22.8238 76.4283 22.7109C76.3342 22.598 76.2871 22.4475 76.2871 22.2593V18.5895C76.2871 18.4013 76.3342 18.2695 76.4283 18.1943C76.5412 18.119 76.6823 18.0625 76.8517 18.0249C77.2845 17.912 77.6233 17.5356 77.8679 16.8957C78.1126 16.2559 78.2914 15.4278 78.4043 14.4116C78.5172 13.3953 78.5831 12.2285 78.6019 10.9111C78.6395 9.57496 78.6584 8.15409 78.6584 6.64854H77.0493C76.6729 6.64854 76.4847 6.46034 76.4847 6.08395V2.89406C76.4847 2.51767 76.6729 2.32948 77.0493 2.32948H82.6951C83.0903 2.32948 83.2879 2.52708 83.2879 2.92229V6.0275C83.2879 8.51166 83.2409 10.7418 83.1468 12.7178C83.0715 14.675 82.8269 16.3688 82.4128 17.7991C81.9988 19.2105 81.359 20.3397 80.4933 21.1866C79.6276 22.0334 78.4137 22.5792 76.8517 22.8238ZM84.1913 23.953C84.0031 23.9906 83.8619 23.953 83.7678 23.8401C83.6737 23.7272 83.6267 23.5766 83.6267 23.3884V19.7186C83.6267 19.3987 83.8149 19.2105 84.1913 19.1541C84.8123 19.0223 85.2828 18.5801 85.6027 17.8273C85.9227 17.0745 86.1485 16.1241 86.2802 14.9761C86.4308 13.8093 86.5155 12.5108 86.5343 11.0805C86.5531 9.63142 86.5625 8.15409 86.5625 6.64854H84.8688C84.4924 6.64854 84.3042 6.46034 84.3042 6.08395V2.89406C84.3042 2.51767 84.4924 2.32948 84.8688 2.32948H90.5993C90.9945 2.32948 91.1921 2.52708 91.1921 2.92229V6.0275C91.1921 7.58951 91.1733 9.09506 91.1357 10.5442C91.1168 11.9744 91.0321 13.3294 90.8816 14.6092C90.7499 15.8889 90.5334 17.0651 90.2323 18.1378C89.95 19.2105 89.5454 20.1515 89.0185 20.9607C88.5103 21.77 87.8611 22.438 87.0707 22.965C86.2802 23.4731 85.3204 23.8025 84.1913 23.953Z" fill="#1DC078"/>
        <path id="Vector_2" d="M67.946 12.6896C67.5508 12.6896 67.3532 12.5014 67.3532 12.125V2.35771C67.3532 1.9625 67.5508 1.76489 67.946 1.76489H71.9828C72.378 1.76489 72.5756 1.9625 72.5756 2.35771V4.72895H73.9024C74.2788 4.72895 74.467 4.92656 74.467 5.32177V8.65281C74.467 9.0292 74.2788 9.21739 73.9024 9.21739H72.5756V12.125C72.5756 12.5014 72.378 12.6896 71.9828 12.6896H67.946ZM52.2224 12.7178C51.846 12.7554 51.6578 12.5672 51.6578 12.1532V9.47145C51.6578 9.09506 51.846 8.90687 52.2224 8.90687C53.1822 8.86923 54.0855 8.77513 54.9324 8.62458C55.7981 8.47402 56.5603 8.26701 57.219 8.00354C57.8965 7.72124 58.461 7.40131 58.9127 7.04375C59.3644 6.66736 59.6749 6.24392 59.8443 5.77343H51.799C51.4226 5.77343 51.2344 5.58524 51.2344 5.20885V2.61177C51.2344 2.23538 51.4226 2.04719 51.799 2.04719H64.9255C65.3207 2.04719 65.5183 2.24479 65.5183 2.64V4.53135C65.5183 5.58524 65.3207 6.5168 64.9255 7.32604C64.5303 8.13527 63.994 8.841 63.3165 9.44322C62.6578 10.0266 61.8862 10.5253 61.0017 10.9394C60.1171 11.3346 59.1856 11.6639 58.207 11.9274C57.2284 12.172 56.2215 12.3602 55.1865 12.492C54.1514 12.6049 53.1634 12.6802 52.2224 12.7178ZM52.6176 24.6587C52.2412 24.6587 52.053 24.4705 52.053 24.0942V18.7871C52.053 18.3919 52.2412 18.1943 52.6176 18.1943H67.0145V17.0086H52.6176C52.2412 17.0086 52.053 16.8204 52.053 16.4441V14.6938C52.053 14.3175 52.2412 14.1293 52.6176 14.1293H72.011C72.3874 14.1293 72.5756 14.3175 72.5756 14.6938V19.9162C72.5756 20.2926 72.3874 20.4808 72.011 20.4808H57.6424V21.7511H72.2651C72.6415 21.7511 72.8297 21.9393 72.8297 22.3157V24.0942C72.8297 24.4705 72.6415 24.6587 72.2651 24.6587H52.6176Z" fill="#1DC078"/>
        <path id="Vector_3" d="M34.5092 25.3645C31.9309 25.3645 29.9737 24.9881 28.6375 24.2353C27.3202 23.4637 26.6615 22.3534 26.6615 20.9043C26.6615 19.4364 27.3202 18.326 28.6375 17.5732C29.9737 16.8205 31.9309 16.4441 34.5092 16.4441H40.2679C42.8462 16.4441 44.7752 16.8205 46.0549 17.5732C47.3346 18.326 47.9745 19.4364 47.9745 20.9043C47.9745 22.3534 47.3346 23.4637 46.0549 24.2353C44.7752 24.9881 42.8462 25.3645 40.2679 25.3645H34.5092ZM44.0224 15.7666C43.646 15.7666 43.4578 15.5784 43.4578 15.202V9.97959H41.9335V14.6374C41.9335 15.0138 41.7453 15.202 41.3689 15.202H38.1225C37.7461 15.202 37.5579 15.0138 37.5579 14.6374V2.44241C37.5579 2.0472 37.7461 1.8496 38.1225 1.8496H41.3689C41.7453 1.8496 41.9335 2.0472 41.9335 2.44241V5.74522H43.4578V2.35772C43.4578 1.96251 43.646 1.76491 44.0224 1.76491H47.297C47.6734 1.76491 47.8616 1.96251 47.8616 2.35772V15.202C47.8616 15.5784 47.6734 15.7666 47.297 15.7666H44.0224ZM36.4005 11.3628C36.4005 12.0403 36.2594 12.6237 35.9771 13.113C35.7136 13.6023 35.3467 14.007 34.8762 14.3269C34.4057 14.628 33.8505 14.8538 33.2106 15.0044C32.5708 15.1361 31.8839 15.202 31.1499 15.202C30.416 15.202 29.7291 15.1361 29.0892 15.0044C28.4681 14.8538 27.913 14.628 27.4237 14.3269C26.9532 14.007 26.5768 13.6023 26.2945 13.113C26.031 12.6237 25.8993 12.0403 25.8993 11.3628V11.0523C25.8993 10.3748 26.031 9.80081 26.2945 9.33032C26.5768 8.84102 26.9532 8.44581 27.4237 8.1447C27.8942 7.82477 28.4493 7.58952 29.0892 7.43897C29.7291 7.28841 30.416 7.21313 31.1499 7.21313C31.8839 7.21313 32.5614 7.28841 33.1824 7.43897C33.8223 7.58952 34.3775 7.82477 34.8479 8.1447C35.3372 8.44581 35.7136 8.84102 35.9771 9.33032C36.2594 9.80081 36.4005 10.3748 36.4005 11.0523V11.3628ZM25.5605 3.4022C25.5605 3.02581 25.7582 2.83762 26.1534 2.83762H28.8916V1.22855C28.8916 0.833346 29.0892 0.635742 29.4844 0.635742H32.8154C33.2106 0.635742 33.4083 0.833346 33.4083 1.22855V2.83762H35.9771C36.3911 2.83762 36.5981 3.02581 36.5981 3.4022V5.77345C36.5981 6.16866 36.3911 6.36626 35.9771 6.36626H26.1534C25.7582 6.36626 25.5605 6.16866 25.5605 5.77345V3.4022ZM40.2679 21.8923C41.0584 21.8923 41.5947 21.817 41.877 21.6665C42.1781 21.5159 42.3287 21.2618 42.3287 20.9043C42.3287 20.5467 42.1781 20.2926 41.877 20.1421C41.5947 19.9915 41.0584 19.9163 40.2679 19.9163H34.5092C33.7188 19.9163 33.1542 19.9915 32.8154 20.1421C32.4767 20.2738 32.3073 20.5279 32.3073 20.9043C32.3073 21.2995 32.4767 21.563 32.8154 21.6947C33.1542 21.8264 33.7188 21.8923 34.5092 21.8923H40.2679ZM32.2791 11.1934C32.2791 10.8359 32.185 10.5442 31.9968 10.3183C31.8086 10.0925 31.5263 9.97959 31.1499 9.97959C30.7735 9.97959 30.4912 10.0925 30.303 10.3183C30.1148 10.5442 30.0208 10.8453 30.0208 11.2217C30.0208 11.5981 30.1148 11.8992 30.303 12.125C30.4912 12.332 30.7735 12.4355 31.1499 12.4355C31.5263 12.4355 31.8086 12.3226 31.9968 12.0968C32.185 11.8709 32.2791 11.5698 32.2791 11.1934Z" fill="#1DC078"/>
        <path id="Vector_4" d="M17.6997 24.7999C17.3045 24.7999 17.1069 24.6117 17.1069 24.2353V19.7469H14.4251C14.1993 20.669 13.8793 21.45 13.4653 22.0899C13.0701 22.7109 12.5808 23.2096 11.9974 23.586C11.414 23.9624 10.7553 24.2353 10.0213 24.4047C9.30621 24.574 8.51579 24.6587 7.6501 24.6587C6.57739 24.6587 5.60819 24.527 4.7425 24.2635C3.8768 24.0001 3.13344 23.5484 2.51239 22.9085C1.89135 22.2687 1.41146 21.4218 1.07271 20.3679C0.752777 19.2952 0.592812 17.959 0.592812 16.3594V7.91885C0.592812 7.54246 0.781007 7.35427 1.1574 7.35427H5.25062C5.64583 7.35427 5.84343 7.54246 5.84343 7.91885V16.557C5.84343 17.9496 5.97517 18.9376 6.23864 19.521C6.50211 20.1044 6.9726 20.3961 7.6501 20.3961C8.34642 20.3961 8.82631 20.1138 9.08979 19.5493C9.37208 18.9659 9.51322 17.9684 9.51322 16.557V11.3628C9.51322 10.5536 9.45677 9.84784 9.34385 9.24562C9.23093 8.62458 9.02392 8.11645 8.72281 7.72124C8.44052 7.30722 8.04531 7.00611 7.53718 6.81791C7.04788 6.6109 6.42684 6.50739 5.67406 6.50739H0.592812C0.197604 6.50739 0 6.3192 0 5.94281V2.86583C0 2.48944 0.197604 2.30125 0.592812 2.30125H5.53291C7.64069 2.30125 9.36267 2.60236 10.6988 3.20458C12.0538 3.8068 13.0607 4.75718 13.7194 6.05572H13.8041H17.1069V2.35771C17.1069 1.9625 17.3045 1.76489 17.6997 1.76489H21.7364C22.1317 1.76489 22.3293 1.9625 22.3293 2.35771V24.2353C22.3293 24.6117 22.1317 24.7999 21.7364 24.7999H17.6997ZM14.7638 15.2867H17.1069V10.5159H14.7356C14.7544 10.6853 14.7638 10.8547 14.7638 11.0241C14.7638 11.1934 14.7638 11.3628 14.7638 11.5322V15.2867Z" fill="#1DC078"/>
    </g>
</svg>