<svg width="24" height="25" viewBox="0 0 24 25" fill="none" xmlns="http://www.w3.org/2000/svg">
<g clip-path="url(#clip0_6_250)">
<path d="M7.02574 1.02752L6.85 0.996902V1.17529V21.2143H4H3.85V21.3643V23.3643V23.5143H4H21H21.15V23.3643V21.3643V21.2143H21H17.7136C18.0449 20.1514 18.2997 18.8589 18.4313 17.4735C18.5873 15.8389 18.5774 14.0143 18.2952 12.1884L18.2952 12.1883C18.0091 10.3415 17.4401 8.46445 16.4544 6.78345C14.863 4.06797 12.229 1.93239 8.19674 1.23152C8.19672 1.23152 8.19671 1.23151 8.19669 1.23151L7.02574 1.02752ZM15.9804 18.5143C15.7989 19.6282 15.5416 20.557 15.2757 21.2143H9.15V18.5143H15.9804ZM16.1444 13.5143C16.2336 14.4307 16.2519 15.3411 16.2139 16.2143H9.15V13.5143H16.1444ZM14.7786 8.51429C15.2075 9.37422 15.5371 10.2801 15.7612 11.2143H9.15V8.51429H14.7786ZM9.15 3.8115C10.8553 4.31852 12.1666 5.16217 13.1715 6.21429H9.15V3.8115Z" fill="#1DC078" stroke="#1DC078" stroke-width="0.3"/>
</g>
<defs>
<clipPath id="clip0_6_250">
<rect width="24" height="24" fill="white" transform="translate(0 0.364258)"/>
</clipPath>
</defs>
</svg>
