<svg width="55" height="49" viewBox="0 0 55 49" fill="none" xmlns="http://www.w3.org/2000/svg">
<g id="Group 15">
<g id="Group">
<path id="Vector" d="M49.667 37.625H45.167L27.167 5.5625L9.16699 37.625H4.66699" stroke="black" stroke-width="9" stroke-linecap="round" stroke-linejoin="round"/>
<path id="Vector_2" d="M27.167 33.125C24.0604 33.125 21.542 37.1544 21.542 42.125V44.375H32.792V42.125C32.792 37.1544 30.2736 33.125 27.167 33.125Z" fill="black" stroke="black" stroke-width="9" stroke-linecap="round" stroke-linejoin="round"/>
<path id="Vector_3" d="M4.66699 44.375H49.667" stroke="black" stroke-width="9" stroke-linecap="round" stroke-linejoin="round"/>
<path id="Vector_4" d="M17.042 24.125C17.042 24.125 22.667 19.625 27.167 19.625C31.667 19.625 37.292 24.125 37.292 24.125" stroke="black" stroke-width="9" stroke-linecap="round" stroke-linejoin="round"/>
<path id="Vector_5" d="M45.167 5L42.917 8.375L45.167 11.75" stroke="black" stroke-width="9" stroke-linecap="round" stroke-linejoin="round"/>
<path id="Vector_6" d="M45.167 5L47.417 8.375L45.167 11.75" stroke="black" stroke-width="9" stroke-linecap="round" stroke-linejoin="round"/>
<path id="Vector_7" d="M8.04199 17.375L6.91699 19.625L8.04199 21.875" stroke="black" stroke-width="9" stroke-linecap="round" stroke-linejoin="round"/>
<path id="Vector_8" d="M8.04199 17.375L9.16699 19.625L8.04199 21.875" stroke="black" stroke-width="9" stroke-linecap="round" stroke-linejoin="round"/>
</g>
<g id="Group_2">
<path id="Vector_9" d="M49.667 37.625H45.167L27.167 5.5625L9.16699 37.625H4.66699" stroke="#EDCC59" stroke-width="4" stroke-linecap="round" stroke-linejoin="round"/>
<g id="Vector_10">
<path d="M27.167 33.125C24.0604 33.125 21.542 37.1544 21.542 42.125V44.375H32.792V42.125C32.792 37.1544 30.2736 33.125 27.167 33.125Z" fill="#2F88FF"/>
<path d="M27.167 33.125C24.0604 33.125 21.542 37.1544 21.542 42.125V44.375H32.792V42.125C32.792 37.1544 30.2736 33.125 27.167 33.125Z" fill="black" fill-opacity="0.2"/>
<path d="M27.167 33.125C24.0604 33.125 21.542 37.1544 21.542 42.125V44.375H32.792V42.125C32.792 37.1544 30.2736 33.125 27.167 33.125Z" stroke="#EDCC59" stroke-width="4" stroke-linecap="round" stroke-linejoin="round"/>
</g>
<path id="Vector_11" d="M4.66699 44.375H49.667" stroke="#EDCC59" stroke-width="4" stroke-linecap="round" stroke-linejoin="round"/>
<path id="Vector_12" d="M17.042 24.125C17.042 24.125 22.667 19.625 27.167 19.625C31.667 19.625 37.292 24.125 37.292 24.125" stroke="#EDCC59" stroke-width="4" stroke-linecap="round" stroke-linejoin="round"/>
<path id="Vector_13" d="M45.167 5L42.917 8.375L45.167 11.75" stroke="#E84B4B" stroke-width="4" stroke-linecap="round" stroke-linejoin="round"/>
<path id="Vector_14" d="M45.167 5L47.417 8.375L45.167 11.75" stroke="#E84B4B" stroke-width="4" stroke-linecap="round" stroke-linejoin="round"/>
<path id="Vector_15" d="M8.04199 17.375L6.91699 19.625L8.04199 21.875" stroke="#E8714B" stroke-width="4" stroke-linecap="round" stroke-linejoin="round"/>
<path id="Vector_16" d="M8.04199 17.375L9.16699 19.625L8.04199 21.875" stroke="#E8714B" stroke-width="4" stroke-linecap="round" stroke-linejoin="round"/>
</g>
</g>
</svg>
