<svg width="46" height="40" viewBox="0 0 46 40" fill="none" xmlns="http://www.w3.org/2000/svg">
<g id="Group 16">
<g id="Vector 70">
<path d="M8.66699 7L11.167 3L15.167 4.5L14.167 8.5L12.167 10.5L8.66699 7Z" fill="#EDCC59"/>
<path d="M8.66699 25L11.667 22L15.167 25L14.167 28.5L10.167 29.5L8.66699 25Z" fill="#EDCC59"/>
<path d="M8.66699 7L11.167 3L15.167 4.5L14.167 8.5L12.167 10.5L8.66699 7Z" stroke="black"/>
<path d="M8.66699 25L11.667 22L15.167 25L14.167 28.5L10.167 29.5L8.66699 25Z" stroke="black"/>
</g>
<path id="Vector" d="M0.666992 0H4.7579V13.3333H19.0761V1.90476H37.4852C41.9852 1.90476 45.667 5.33333 45.667 9.52381V40H41.5761V36.1905H4.7579V40H0.666992V0ZM23.167 5.71429V13.3333H41.5761V9.52381C41.5761 7.42857 39.7352 5.71429 37.4852 5.71429H23.167ZM4.7579 17.1429V32.381H19.0761V20.9524H37.4852C38.917 20.9524 40.3488 21.3333 41.5761 22.0952V17.1429H4.7579ZM11.917 20.9524C14.7806 20.9524 17.0306 23.0476 17.0306 25.7143C17.0306 28.381 14.7806 30.4762 11.917 30.4762C9.05336 30.4762 6.80336 28.381 6.80336 25.7143C6.80336 23.0476 9.05336 20.9524 11.917 20.9524ZM11.917 24C10.8943 24 10.0761 24.7619 10.0761 25.7143C10.0761 26.6667 10.8943 27.4286 11.917 27.4286C12.9397 27.4286 13.7579 26.6667 13.7579 25.7143C13.7579 24.7619 12.9397 24 11.917 24ZM23.167 24.7619V32.381H41.5761V28.5714C41.5761 26.4762 39.7352 24.7619 37.4852 24.7619H23.167ZM11.917 1.90476C14.7806 1.90476 17.0306 4 17.0306 6.66667C17.0306 9.33333 14.7806 11.4286 11.917 11.4286C9.05336 11.4286 6.80336 9.33333 6.80336 6.66667C6.80336 4 9.05336 1.90476 11.917 1.90476ZM11.917 4.95238C10.8943 4.95238 10.0761 5.71429 10.0761 6.66667C10.0761 7.61905 10.8943 8.38095 11.917 8.38095C12.9397 8.38095 13.7579 7.61905 13.7579 6.66667C13.7579 5.71429 12.9397 4.95238 11.917 4.95238Z" fill="black"/>
<g id="Vector 64">
<path d="M23.167 32.5V24.5V24H37.667L40.167 25L41.667 27.5V32.5H23.167Z" fill="#F06161"/>
<path d="M23.167 32.5V24.5V24H37.667L40.167 25L41.667 27.5V32.5H23.167Z" fill="#F06161"/>
<path d="M23.167 32.5V24.5V24H37.667L40.167 25L41.667 27.5V32.5H23.167Z" stroke="black"/>
</g>
<g id="Vector 65">
<path d="M22.667 14V5.52941V5H37.5589L40.1265 6.05882L41.667 8.70588V14H22.667Z" fill="#F06161"/>
<path d="M22.667 14V5.52941V5H37.5589L40.1265 6.05882L41.667 8.70588V14H22.667Z" fill="#F06161"/>
<path d="M22.667 14V5.52941V5H37.5589L40.1265 6.05882L41.667 8.70588V14H22.667Z" stroke="black"/>
</g>
</g>
</svg>
