<svg width="58" height="38" viewBox="0 0 58 38" fill="none" xmlns="http://www.w3.org/2000/svg">
<g id="Group 14">
<g id="Group">
<path id="Vector 68" d="M5.16699 19L6.16699 13L12.167 10L20.167 9L27.167 13L28.667 19L31.667 22.5V32.5H1.66699V23.5L5.16699 19Z" fill="#EDCC59" stroke="black"/>
<path id="Vector 69" d="M39.667 14.5L42.167 2L53.167 3L55.167 14.5H39.667Z" fill="#E8714B" stroke="black"/>
<path id="Vector" fill-rule="evenodd" clip-rule="evenodd" d="M13.417 8C10.9306 8 8.54602 8.87797 6.78787 10.4408C5.02971 12.0036 4.04199 14.1232 4.04199 16.3333V18.2833C2.94498 18.6284 1.99528 19.2672 1.32369 20.1119C0.652103 20.9566 0.291657 21.9656 0.291992 23V31.3333C0.291992 32.2174 0.68708 33.0652 1.39034 33.6904C2.0936 34.3155 3.04743 34.6667 4.04199 34.6667V36.3333C4.04199 36.7754 4.23954 37.1993 4.59117 37.5118C4.9428 37.8244 5.41971 38 5.91699 38C6.41427 38 6.89119 37.8244 7.24282 37.5118C7.59445 37.1993 7.79199 36.7754 7.79199 36.3333V34.6667H26.542V36.3333C26.542 36.7754 26.7395 37.1993 27.0912 37.5118C27.4428 37.8244 27.9197 38 28.417 38C28.9143 38 29.3912 37.8244 29.7428 37.5118C30.0944 37.1993 30.292 36.7754 30.292 36.3333V34.6667C31.2866 34.6667 32.2404 34.3155 32.9436 33.6904C33.6469 33.0652 34.042 32.2174 34.042 31.3333V23C34.0423 21.9656 33.6819 20.9566 33.0103 20.1119C32.3387 19.2672 31.389 18.6284 30.292 18.2833V16.3333C30.292 14.1232 29.3043 12.0036 27.5461 10.4408C25.788 8.87797 23.4034 8 20.917 8H13.417ZM26.542 18.2833V16.3333C26.542 15.0073 25.9494 13.7355 24.8945 12.7978C23.8396 11.8601 22.4088 11.3333 20.917 11.3333H13.417C11.9251 11.3333 10.4944 11.8601 9.43952 12.7978C8.38462 13.7355 7.79199 15.0073 7.79199 16.3333V18.2833C9.97637 18.9717 11.542 20.8233 11.542 23V24.6667H22.792V23C22.792 20.8233 24.3576 18.9717 26.542 18.2833ZM4.04199 23C4.04199 22.558 4.23954 22.134 4.59117 21.8215C4.9428 21.5089 5.41971 21.3333 5.91699 21.3333C6.41427 21.3333 6.89119 21.5089 7.24282 21.8215C7.59445 22.134 7.79199 22.558 7.79199 23V26.3333C7.79199 26.7754 7.98954 27.1993 8.34117 27.5118C8.6928 27.8244 9.16971 28 9.66699 28H24.667C25.1643 28 25.6412 27.8244 25.9928 27.5118C26.3444 27.1993 26.542 26.7754 26.542 26.3333V23C26.542 22.558 26.7395 22.134 27.0912 21.8215C27.4428 21.5089 27.9197 21.3333 28.417 21.3333C28.9143 21.3333 29.3912 21.5089 29.7428 21.8215C30.0944 22.134 30.292 22.558 30.292 23V31.3333H4.04199V23Z" fill="black"/>
</g>
<path id="Vector_2" d="M38.927 15.1184L38.6218 15.2898C38.9281 15.8351 39.3726 16.1735 39.9582 16.1735H46.531V32.7647V33.1147H46.881H48.453H48.803V32.7647V16.1735H55.3759C55.9615 16.1735 56.4059 15.8351 56.7122 15.2898L56.7123 15.2896C57.0206 14.7403 57.0935 14.143 56.9375 13.5179L54.5677 3.31376L54.5675 3.31294C54.3867 2.54283 54.055 1.90186 53.5606 1.40868L53.5605 1.40857C53.0634 0.913121 52.4773 0.65 51.8138 0.65H43.5202C42.8567 0.65 42.2702 0.913075 41.7722 1.40828L41.7715 1.40897C41.2783 1.90215 40.9473 2.54302 40.7665 3.31294L40.7663 3.31381L38.3982 13.5174C38.2399 14.1427 38.3123 14.7405 38.622 15.2902L38.927 15.1184ZM38.927 15.1184C38.6629 14.6496 38.6 14.1435 38.7383 13.6L46.531 15.8235H39.9582C39.5348 15.8235 39.191 15.5885 38.927 15.1184ZM54.5368 13.3559H40.7973L42.9228 4.13224L42.9228 4.13224L42.9233 4.13023C42.9717 3.91409 43.0603 3.7509 43.1815 3.62655L43.1822 3.62578C43.2948 3.5095 43.4033 3.46765 43.5202 3.46765H51.8138C51.9307 3.46765 52.0393 3.5095 52.1518 3.62578L52.1526 3.62655C52.2737 3.7509 52.3623 3.91409 52.4107 4.13023L52.4112 4.13224L54.5368 13.3559ZM41.8152 37V37.35H42.1652H53.1688H53.5188V37V34.8824V34.5324H53.1688H42.1652H41.8152V34.8824V37Z" fill="black" stroke="black" stroke-width="0.7"/>
</g>
</svg>
