<svg width="46" height="40" viewBox="0 0 46 40" fill="none" xmlns="http://www.w3.org/2000/svg">
<g id="Group 18">
<path id="Vector 66" d="M6.16699 36.5V3.5H36.167V15.5H22.667V36.5H6.16699Z" fill="#ED4C5C" stroke="black"/>
<path id="Vector 67" d="M24.167 37V16.5H40.667V37H24.167Z" fill="#EDCC59" stroke="black"/>
<path id="Vector" d="M45.667 40H0.666992V35.5556H2.91699V2.22222C2.91699 1.63285 3.15405 1.06762 3.576 0.650874C3.99796 0.234126 4.57026 0 5.16699 0H36.667C37.2637 0 37.836 0.234126 38.258 0.650874C38.6799 1.06762 38.917 1.63285 38.917 2.22222V13.3333H43.417V35.5556H45.667V40ZM34.417 35.5556H38.917V17.7778H25.417V35.5556H29.917V22.2222H34.417V35.5556ZM34.417 13.3333V4.44444H7.41699V35.5556H20.917V13.3333H34.417ZM11.917 17.7778H16.417V22.2222H11.917V17.7778ZM11.917 26.6667H16.417V31.1111H11.917V26.6667ZM11.917 8.88889H16.417V13.3333H11.917V8.88889Z" fill="black"/>
</g>
</svg>
