<svg width="45" height="33" viewBox="0 0 45 33" fill="none" xmlns="http://www.w3.org/2000/svg">
<g id="Group 17">
<path id="Vector 76" d="M33.0395 19.5767L37.3352 18.1448L40.199 18.8607L43.0627 21.0085L44.4946 26.0201L42.3468 30.3158L38.0511 32.4636L34.4714 31.7477L32.3236 30.3158L30.8917 27.452L30.1758 23.8723L33.0395 19.5767Z" fill="white"/>
<path id="Vector 73" d="M38.0509 22.4404L37.335 18.8607L38.0509 18.1448L40.9147 19.5767L41.6306 21.0085V24.5883L40.1987 28.168L39.4828 27.452L37.335 25.3042L38.0509 22.4404Z" fill="#1DC078"/>
<path id="Vector 72" d="M33.7559 26.0201L37.3356 25.3042L39.4834 27.452L43.0631 28.8839L41.6312 31.0317L39.4834 31.7477L37.3356 30.3158L34.4718 27.452L33.7559 26.0201Z" fill="#E84B4B"/>
<path id="Vector 71" d="M38.0511 21.7246L37.3352 25.3043H35.1874L33.0395 26.7362L31.6077 28.884L30.1758 26.7362L30.8917 24.5884L34.4714 22.4406L38.0511 21.7246Z" fill="#EDCC59"/>
<g id="Group 7">
<g id="Vector 74">
<path d="M0.987305 15.3912L3.74093 9.88398L5.3931 17.5941L8.69745 23.6521L5.3931 27.5072L2.63948 28.0579L0.987305 23.6521V15.3912Z" fill="#E84B4B"/>
<path d="M15.3061 1.07239L9.24817 3.27529L12.0018 4.92746L20.2627 8.23181V10.4347L25.2192 4.37674L22.4656 2.17384L15.3061 1.07239Z" fill="#E84B4B"/>
<path d="M0.987305 15.3912L3.74093 9.88398L5.3931 17.5941L8.69745 23.6521L5.3931 27.5072L2.63948 28.0579L0.987305 23.6521V15.3912Z" stroke="black"/>
<path d="M15.3061 1.07239L9.24817 3.27529L12.0018 4.92746L20.2627 8.23181V10.4347L25.2192 4.37674L22.4656 2.17384L15.3061 1.07239Z" stroke="black"/>
</g>
<path id="Vector 75" d="M3.74121 10.4347L5.39338 6.57961L7.59628 4.37671L12.0021 4.92743L18.0601 7.13033L21.3644 9.33323L8.14701 23.6521L5.94411 19.2463L3.74121 10.4347Z" fill="#EDCC59"/>
<g id="Group 13">
<g id="Group">
<path id="Vector" d="M30.3555 25.3044C30.3555 26.2211 30.536 27.1288 30.8868 27.9757C31.2376 28.8226 31.7518 29.5921 32.4 30.2403C33.0482 30.8885 33.8177 31.4027 34.6646 31.7535C35.5115 32.1043 36.4192 32.2848 37.3359 32.2848C38.2526 32.2848 39.1603 32.1043 40.0072 31.7535C40.8541 31.4027 41.6236 30.8885 42.2718 30.2403C42.92 29.5921 43.4342 28.8226 43.785 27.9757C44.1358 27.1288 44.3163 26.2211 44.3163 25.3044C44.3163 24.3877 44.1358 23.48 43.785 22.6331C43.4342 21.7862 42.92 21.0167 42.2718 20.3685C41.6236 19.7203 40.8541 19.2061 40.0072 18.8553C39.1603 18.5045 38.2526 18.324 37.3359 18.324C36.4192 18.324 35.5115 18.5045 34.6646 18.8553C33.8177 19.2061 33.0482 19.7203 32.4 20.3685C31.7518 21.0167 31.2376 21.7862 30.8868 22.6331C30.536 23.48 30.3555 24.3877 30.3555 25.3044Z" stroke="black" stroke-linecap="round" stroke-linejoin="round"/>
<path id="Vector_2" d="M37.3359 25.3043C37.9436 26.3806 38.8588 27.2509 39.9643 27.8037C41.0698 28.3564 42.3151 28.5664 43.5408 28.4067M33.8457 26.4677C34.4796 27.7608 35.405 28.8891 36.549 29.7639C37.693 30.6388 39.0243 31.2362 40.4383 31.5092" stroke="black" stroke-linecap="round" stroke-linejoin="round"/>
<path id="Vector_3" d="M37.3355 25.3045C36.0996 25.2926 34.8883 25.65 33.8569 26.331C32.8255 27.012 32.021 27.9854 31.5464 29.1267M38.0731 21.7003C36.6362 21.6026 35.1962 21.8397 33.8665 22.393C32.5368 22.9463 31.3537 23.8006 30.4102 24.8888" stroke="black" stroke-linecap="round" stroke-linejoin="round"/>
<path id="Vector_4" d="M37.3356 25.3045C37.9639 24.2401 38.26 23.0124 38.1859 21.7787C38.1118 20.5449 37.671 19.3614 36.9199 18.3799M40.0883 27.7453C40.8912 26.5498 41.4058 25.1843 41.5915 23.7562C41.7773 22.3282 41.6291 20.8765 41.1586 19.5154" stroke="black" stroke-linecap="round" stroke-linejoin="round"/>
</g>
<path id="Vector_5" d="M27.6335 32.4817L14.3537 17.6204L15.6738 16.493L26.5367 28.404C26.708 28.5967 29.1554 31.4973 29.1554 31.792C29.1554 32.0852 29.0575 32.3289 28.8616 32.523C28.6903 32.7158 28.4859 32.8053 28.2485 32.7915C28.0111 32.7778 27.8061 32.6745 27.6335 32.4817ZM2.30386 28.4463C1.54509 26.9373 0.971111 25.3705 0.581932 23.7459C0.193977 22.1212 0 20.4739 0 18.8038C0 16.3572 0.402029 13.9863 1.20609 11.6912C2.01137 9.39605 3.23765 7.33496 4.88493 5.50794C6.53343 3.65475 8.37958 2.27312 10.4234 1.36304C12.4672 0.454348 14.5538 0 16.6833 0C18.191 0 19.6609 0.22029 21.0928 0.66087C22.5246 1.10145 23.9076 1.74924 25.2415 2.60424C25.791 2.97598 26.0964 3.50674 26.1576 4.19652C26.2188 4.88768 26.0089 5.50312 25.5279 6.04283L5.36222 28.7292C4.88126 29.2689 4.33237 29.5113 3.71556 29.4562C3.09752 29.4011 2.62696 29.0645 2.30386 28.4463ZM3.91014 27.4137L7.23652 23.6736C6.74699 22.8971 6.26296 22.0779 5.78444 21.216C5.30593 20.3541 4.88248 19.4378 4.51411 18.4672C4.14696 17.4979 3.85507 16.4694 3.63845 15.3817C3.42184 14.2941 3.30068 13.163 3.27498 11.9886C2.16129 14.4958 1.69134 17.1028 1.86512 19.8096C2.03768 22.515 2.71936 25.0497 3.91014 27.4137ZM8.62802 22.2114L19.7343 9.61359C18.4187 8.47772 17.0774 7.58348 15.7103 6.93087C14.3445 6.27826 13.0509 5.8425 11.8296 5.62359C10.6082 5.40605 9.50122 5.40949 8.5087 5.63391C7.51739 5.85971 6.74944 6.27826 6.20483 6.88957C5.66145 7.50913 5.29002 8.37652 5.09053 9.49174C4.88982 10.6083 4.88064 11.8557 5.06299 13.2339C5.24657 14.6121 5.62779 16.0743 6.20667 17.6204C6.78676 19.1666 7.59388 20.6969 8.62802 22.2114ZM24.4485 4.4113C22.3092 2.99319 20.0311 2.20428 17.614 2.04457C15.1969 1.88486 12.8741 2.40873 10.6455 3.6162C11.7176 3.61895 12.7376 3.75525 13.7057 4.02511C14.6725 4.29634 15.5867 4.63641 16.4483 5.04533C17.3099 5.45424 18.1286 5.92786 18.9045 6.4662C19.6792 7.00591 20.4117 7.56833 21.1019 8.15348L24.4485 4.4113Z" fill="black"/>
</g>
</g>
</g>
</svg>
