<svg width="18" height="18" viewBox="0 0 18 18" fill="none" xmlns="http://www.w3.org/2000/svg">
<path id="Vector" d="M16.875 1.68568L12.3711 1.6857V0.564636C12.3711 0.253855 12.1193 0.00213623 11.8086 0.00213623C11.4978 0.00213623 11.2461 0.253855 11.2461 0.564636V1.68542H6.74606V0.564636C6.74606 0.253855 6.49434 0.00213623 6.18356 0.00213623C5.87278 0.00213623 5.62106 0.253855 5.62106 0.564636V1.68542H1.125C0.503719 1.68542 0 2.18914 0 2.81042V16.8729C0 17.4942 0.503719 17.9979 1.125 17.9979H16.875C17.4963 17.9979 18 17.4942 18 16.8729V2.81042C18 2.1894 17.4963 1.68568 16.875 1.68568ZM16.875 16.8729H1.125V2.81042H5.62106V3.37714C5.62106 3.6879 5.87278 3.93964 6.18356 3.93964C6.49434 3.93964 6.74606 3.6879 6.74606 3.37714V2.8107H11.2461V3.37742C11.2461 3.6882 11.4978 3.93992 11.8086 3.93992C12.1193 3.93992 12.3711 3.6882 12.3711 3.37742V2.8107H16.875V16.8729ZM12.9375 8.99818H14.0625C14.373 8.99818 14.625 8.74618 14.625 8.43568V7.31068C14.625 7.00018 14.373 6.74818 14.0625 6.74818H12.9375C12.627 6.74818 12.375 7.00018 12.375 7.31068V8.43568C12.375 8.74618 12.627 8.99818 12.9375 8.99818ZM12.9375 13.4979H14.0625C14.373 13.4979 14.625 13.2462 14.625 12.9354V11.8104C14.625 11.4999 14.373 11.2479 14.0625 11.2479H12.9375C12.627 11.2479 12.375 11.4999 12.375 11.8104V12.9354C12.375 13.2465 12.627 13.4979 12.9375 13.4979ZM9.5625 11.2479H8.4375C8.127 11.2479 7.875 11.4999 7.875 11.8104V12.9354C7.875 13.2462 8.127 13.4979 8.4375 13.4979H9.5625C9.873 13.4979 10.125 13.2462 10.125 12.9354V11.8104C10.125 11.5002 9.873 11.2479 9.5625 11.2479ZM9.5625 6.74818H8.4375C8.127 6.74818 7.875 7.00018 7.875 7.31068V8.43568C7.875 8.74618 8.127 8.99818 8.4375 8.99818H9.5625C9.873 8.99818 10.125 8.74618 10.125 8.43568V7.31068C10.125 6.9999 9.873 6.74818 9.5625 6.74818ZM5.0625 6.74818H3.9375C3.627 6.74818 3.375 7.00018 3.375 7.31068V8.43568C3.375 8.74618 3.627 8.99818 3.9375 8.99818H5.0625C5.373 8.99818 5.625 8.74618 5.625 8.43568V7.31068C5.625 6.9999 5.373 6.74818 5.0625 6.74818ZM5.0625 11.2479H3.9375C3.627 11.2479 3.375 11.4999 3.375 11.8104V12.9354C3.375 13.2462 3.627 13.4979 3.9375 13.4979H5.0625C5.373 13.4979 5.625 13.2462 5.625 12.9354V11.8104C5.625 11.5002 5.373 11.2479 5.0625 11.2479Z" fill="#636363"/>
</svg>
