<svg width="24" height="25" viewBox="0 0 24 25" fill="none" xmlns="http://www.w3.org/2000/svg">
<g id="carbon:email">
<path id="Vector" d="M21 5.22876H3C2.60218 5.22876 2.22064 5.38679 1.93934 5.6681C1.65804 5.9494 1.5 6.33094 1.5 6.72876V18.7288C1.5 19.1266 1.65804 19.5081 1.93934 19.7894C2.22064 20.0707 2.60218 20.2288 3 20.2288H21C21.3978 20.2288 21.7794 20.0707 22.0607 19.7894C22.342 19.5081 22.5 19.1266 22.5 18.7288V6.72876C22.5 6.33094 22.342 5.9494 22.0607 5.6681C21.7794 5.38679 21.3978 5.22876 21 5.22876ZM19.35 6.72876L12 11.8138L4.65 6.72876H19.35ZM3 18.7288V7.41126L11.5725 13.3438C11.698 13.4309 11.8472 13.4775 12 13.4775C12.1528 13.4775 12.302 13.4309 12.4275 13.3438L21 7.41126V18.7288H3Z" fill="#636363"/>
</g>
</svg>
