<svg width="25" height="25" viewBox="0 0 15 25" fill="none" xmlns="http://www.w3.org/2000/svg">
<path id="Vector" d="M8.7 22.3288C8.7 21.9163 8.55313 21.5631 8.25938 21.2694C7.96563 20.9756 7.6125 20.8288 7.2 20.8288C6.7875 20.8288 6.43438 20.9756 6.14063 21.2694C5.84688 21.5631 5.7 21.9163 5.7 22.3288C5.7 22.7413 5.84688 23.0944 6.14063 23.3881C6.43438 23.6819 6.7875 23.8288 7.2 23.8288C7.6125 23.8288 7.96563 23.6819 8.25938 23.3881C8.55313 23.0944 8.7 22.7413 8.7 22.3288ZM12.6 19.3288V6.12876C12.6 5.96626 12.5406 5.82563 12.4219 5.70688C12.3031 5.58813 12.1625 5.52876 12 5.52876H2.4C2.2375 5.52876 2.09688 5.58813 1.97813 5.70688C1.85938 5.82563 1.8 5.96626 1.8 6.12876V19.3288C1.8 19.4913 1.85938 19.6319 1.97813 19.7506C2.09688 19.8694 2.2375 19.9288 2.4 19.9288H12C12.1625 19.9288 12.3031 19.8694 12.4219 19.7506C12.5406 19.6319 12.6 19.4913 12.6 19.3288ZM9 3.42876C9 3.22876 8.9 3.12876 8.7 3.12876H5.7C5.5 3.12876 5.4 3.22876 5.4 3.42876C5.4 3.62876 5.5 3.72876 5.7 3.72876H8.7C8.9 3.72876 9 3.62876 9 3.42876ZM14.4 3.12876V22.3288C14.4 22.9788 14.1625 23.5413 13.6875 24.0163C13.2125 24.4913 12.65 24.7288 12 24.7288H2.4C1.75 24.7288 1.1875 24.4913 0.7125 24.0163C0.2375 23.5413 0 22.9788 0 22.3288V3.12876C0 2.47876 0.2375 1.91626 0.7125 1.44126C1.1875 0.96626 1.75 0.72876 2.4 0.72876H12C12.65 0.72876 13.2125 0.96626 13.6875 1.44126C14.1625 1.91626 14.4 2.47876 14.4 3.12876Z" fill="#636363"/>
</svg>
