<svg width="24" height="25" viewBox="0 0 24 25" fill="none" xmlns="http://www.w3.org/2000/svg">
<g id="mdi:password-check-outline">
<path id="Vector" d="M14 15.7288C14 16.8388 13.11 17.7288 12 17.7288C11.4696 17.7288 10.9609 17.518 10.5858 17.143C10.2107 16.7679 10 16.2592 10 15.7288C10 14.6188 10.89 13.7288 12 13.7288C12.5304 13.7288 13.0391 13.9395 13.4142 14.3145C13.7893 14.6896 14 15.1983 14 15.7288ZM13.09 20.7288C13.21 21.4488 13.46 22.1188 13.81 22.7288H6C5.46957 22.7288 4.96086 22.518 4.58579 22.143C4.21071 21.7679 4 21.2592 4 20.7288V10.7288C4 9.61876 4.89 8.72876 6 8.72876H7V6.72876C7 3.96876 9.24 1.72876 12 1.72876C14.76 1.72876 17 3.96876 17 6.72876V8.72876H18C18.5304 8.72876 19.0391 8.93947 19.4142 9.31455C19.7893 9.68962 20 10.1983 20 10.7288V13.8188C19.67 13.7688 19.34 13.7288 19 13.7288C18.66 13.7288 18.33 13.7688 18 13.8188V10.7288H6V20.7288H13.09ZM9 8.72876H15V6.72876C15 5.06876 13.66 3.72876 12 3.72876C10.34 3.72876 9 5.06876 9 6.72876V8.72876ZM21.34 16.5688L17.75 20.1588L16.16 18.5688L15 19.7288L17.75 22.7288L22.5 17.9788L21.34 16.5688Z" fill="#636363"/>
</g>
</svg>
