<svg width="24" height="25" viewBox="0 0 24 25" fill="none" xmlns="http://www.w3.org/2000/svg">
<g id="mdi:password-outline">
<path id="Vector" d="M12 17.7288C11.4696 17.7288 10.9609 17.518 10.5858 17.143C10.2107 16.7679 10 16.2592 10 15.7288C10 14.6188 10.89 13.7288 12 13.7288C12.5304 13.7288 13.0391 13.9395 13.4142 14.3145C13.7893 14.6896 14 15.1983 14 15.7288C14 16.2592 13.7893 16.7679 13.4142 17.143C13.0391 17.518 12.5304 17.7288 12 17.7288ZM18 20.7288V10.7288H6V20.7288H18ZM18 8.72876C18.5304 8.72876 19.0391 8.93947 19.4142 9.31455C19.7893 9.68962 20 10.1983 20 10.7288V20.7288C20 21.2592 19.7893 21.7679 19.4142 22.143C19.0391 22.518 18.5304 22.7288 18 22.7288H6C5.46957 22.7288 4.96086 22.518 4.58579 22.143C4.21071 21.7679 4 21.2592 4 20.7288V10.7288C4 9.61876 4.89 8.72876 6 8.72876H7V6.72876C7 5.40268 7.52678 4.13091 8.46447 3.19323C9.40215 2.25554 10.6739 1.72876 12 1.72876C12.6566 1.72876 13.3068 1.85809 13.9134 2.10936C14.52 2.36064 15.0712 2.72893 15.5355 3.19323C15.9998 3.65752 16.3681 4.20871 16.6194 4.81534C16.8707 5.42197 17 6.07215 17 6.72876V8.72876H18ZM12 3.72876C11.2044 3.72876 10.4413 4.04483 9.87868 4.60744C9.31607 5.17005 9 5.93311 9 6.72876V8.72876H15V6.72876C15 5.93311 14.6839 5.17005 14.1213 4.60744C13.5587 4.04483 12.7956 3.72876 12 3.72876Z" fill="#636363"/>
</g>
</svg>
