<svg width="17" height="18" viewBox="0 0 17 18" fill="none" xmlns="http://www.w3.org/2000/svg">
<path id="Vector" fill-rule="evenodd" clip-rule="evenodd" d="M3.7105 4.50561C3.7105 3.91393 3.82704 3.32803 4.05347 2.78139C4.2799 2.23474 4.61178 1.73805 5.03016 1.31966C5.44855 0.901278 5.94524 0.569397 6.49189 0.342969C7.03854 0.116541 7.62443 0 8.21611 0C8.8078 0 9.39369 0.116541 9.94034 0.342969C10.487 0.569397 10.9837 0.901278 11.4021 1.31966C11.8204 1.73805 12.1523 2.23474 12.3788 2.78139C12.6052 3.32803 12.7217 3.91393 12.7217 4.50561C12.7217 5.70057 12.247 6.84659 11.4021 7.69156C10.5571 8.53653 9.41107 9.01122 8.21611 9.01122C7.02115 9.01122 5.87513 8.53653 5.03016 7.69156C4.1852 6.84659 3.7105 5.70057 3.7105 4.50561ZM8.21611 1.59022C7.4429 1.59022 6.70136 1.89737 6.15462 2.44411C5.60787 2.99086 5.30072 3.7324 5.30072 4.50561C5.30072 5.27882 5.60787 6.02036 6.15462 6.56711C6.70136 7.11385 7.4429 7.42101 8.21611 7.42101C8.98932 7.42101 9.73087 7.11385 10.2776 6.56711C10.8244 6.02036 11.1315 5.27882 11.1315 4.50561C11.1315 3.7324 10.8244 2.99086 10.2776 2.44411C9.73087 1.89737 8.98932 1.59022 8.21611 1.59022ZM3.97554 12.1917C3.34291 12.1917 2.7362 12.443 2.28886 12.8903C1.84153 13.3376 1.59022 13.9443 1.59022 14.577V15.8364C1.59022 15.8555 1.604 15.8725 1.62308 15.8757C5.98981 16.5881 10.4435 16.5881 14.8091 15.8757C14.8184 15.8741 14.8268 15.8693 14.8329 15.8621C14.8389 15.8549 14.8421 15.8458 14.842 15.8364V14.577C14.842 13.9443 14.5907 13.3376 14.1434 12.8903C13.696 12.443 13.0893 12.1917 12.4567 12.1917H12.0962C12.0678 12.1914 12.0396 12.1957 12.0125 12.2044L11.0955 12.5044C9.22449 13.1152 7.20773 13.1152 5.33676 12.5044L4.41868 12.2044C4.39229 12.1959 4.36475 12.1916 4.33705 12.1917H3.97554ZM0 14.577C0 13.5226 0.41885 12.5114 1.16441 11.7658C1.90997 11.0203 2.92116 10.6014 3.97554 10.6014H4.33599C4.53211 10.6014 4.72718 10.6332 4.91271 10.6926L5.83079 10.9926C7.38076 11.4986 9.05146 11.4986 10.6014 10.9926L11.5195 10.6926C11.705 10.6322 11.9001 10.6014 12.0952 10.6014H12.4567C13.5111 10.6014 14.5223 11.0203 15.2678 11.7658C16.0134 12.5114 16.4322 13.5226 16.4322 14.577V15.8364C16.4322 16.6358 15.8534 17.3164 15.0646 17.4447C10.529 18.1851 5.90325 18.1851 1.36759 17.4447C0.985853 17.3825 0.638674 17.1866 0.388128 16.892C0.137582 16.5973 5.88853e-06 16.2232 0 15.8364V14.577Z" fill="black"/>
</svg>
