<svg width="24" height="25" viewBox="0 0 24 25" fill="none" xmlns="http://www.w3.org/2000/svg">
<g id="ic:baseline-perm-identity">
<path id="Vector" d="M12 6.62876C12.2758 6.62876 12.5489 6.68308 12.8036 6.78861C13.0584 6.89415 13.2899 7.04883 13.4849 7.24384C13.6799 7.43884 13.8346 7.67034 13.9401 7.92512C14.0457 8.17991 14.1 8.45298 14.1 8.72876C14.1 9.00454 14.0457 9.27761 13.9401 9.5324C13.8346 9.78718 13.6799 10.0187 13.4849 10.2137C13.2899 10.4087 13.0584 10.5634 12.8036 10.6689C12.5489 10.7744 12.2758 10.8288 12 10.8288C11.443 10.8288 10.9089 10.6075 10.5151 10.2137C10.1212 9.81986 9.9 9.28571 9.9 8.72876C9.9 8.17181 10.1212 7.63766 10.5151 7.24384C10.9089 6.85001 11.443 6.62876 12 6.62876ZM12 15.6288C14.97 15.6288 18.1 17.0888 18.1 17.7288V18.8288H5.9V17.7288C5.9 17.0888 9.03 15.6288 12 15.6288ZM12 4.72876C9.79 4.72876 8 6.51876 8 8.72876C8 10.9388 9.79 12.7288 12 12.7288C14.21 12.7288 16 10.9388 16 8.72876C16 6.51876 14.21 4.72876 12 4.72876ZM12 13.7288C9.33 13.7288 4 15.0688 4 17.7288V20.7288H20V17.7288C20 15.0688 14.67 13.7288 12 13.7288Z" fill="#636363"/>
</g>
</svg>
